<svg width="32" height="32" viewBox="0 0 32 32" fill="none" xmlns="http://www.w3.org/2000/svg">
  <defs>
    <linearGradient id="qrGradient" x1="0%" y1="0%" x2="100%" y2="100%">
      <stop offset="0%" style="stop-color:#3B82F6;stop-opacity:1" />
      <stop offset="100%" style="stop-color:#8B5CF6;stop-opacity:1" />
    </linearGradient>
  </defs>
  
  <!-- Background circle -->
  <circle cx="16" cy="16" r="15" fill="url(#qrGradient)" stroke="#ffffff" stroke-width="2"/>
  
  <!-- QR Code pattern -->
  <!-- Top-left corner -->
  <rect x="6" y="6" width="6" height="6" fill="white" rx="1"/>
  <rect x="7" y="7" width="4" height="4" fill="url(#qrGradient)" rx="0.5"/>
  <rect x="8" y="8" width="2" height="2" fill="white" rx="0.2"/>
  
  <!-- Top-right corner -->
  <rect x="20" y="6" width="6" height="6" fill="white" rx="1"/>
  <rect x="21" y="7" width="4" height="4" fill="url(#qrGradient)" rx="0.5"/>
  <rect x="22" y="8" width="2" height="2" fill="white" rx="0.2"/>
  
  <!-- Bottom-left corner -->
  <rect x="6" y="20" width="6" height="6" fill="white" rx="1"/>
  <rect x="7" y="21" width="4" height="4" fill="url(#qrGradient)" rx="0.5"/>
  <rect x="8" y="22" width="2" height="2" fill="white" rx="0.2"/>
  
  <!-- Center pattern -->
  <rect x="14" y="14" width="4" height="4" fill="white" rx="0.5"/>
  <rect x="15" y="15" width="2" height="2" fill="url(#qrGradient)" rx="0.2"/>
  
  <!-- Data dots -->
  <rect x="14" y="7" width="1" height="1" fill="white" rx="0.1"/>
  <rect x="16" y="7" width="1" height="1" fill="white" rx="0.1"/>
  <rect x="18" y="7" width="1" height="1" fill="white" rx="0.1"/>
  
  <rect x="7" y="14" width="1" height="1" fill="white" rx="0.1"/>
  <rect x="7" y="16" width="1" height="1" fill="white" rx="0.1"/>
  <rect x="7" y="18" width="1" height="1" fill="white" rx="0.1"/>
  
  <rect x="21" y="14" width="1" height="1" fill="white" rx="0.1"/>
  <rect x="23" y="14" width="1" height="1" fill="white" rx="0.1"/>
  <rect x="25" y="14" width="1" height="1" fill="white" rx="0.1"/>
  
  <rect x="14" y="21" width="1" height="1" fill="white" rx="0.1"/>
  <rect x="16" y="21" width="1" height="1" fill="white" rx="0.1"/>
  <rect x="18" y="21" width="1" height="1" fill="white" rx="0.1"/>
  <rect x="14" y="23" width="1" height="1" fill="white" rx="0.1"/>
  <rect x="16" y="23" width="1" height="1" fill="white" rx="0.1"/>
  <rect x="18" y="23" width="1" height="1" fill="white" rx="0.1"/>
</svg>
